<?xml version="1.0" encoding="UTF-8" standalone="no"?><!DOCTYPE svg PUBLIC "-//W3C//DTD SVG 1.1//EN" "http://www.w3.org/Graphics/SVG/1.1/DTD/svg11.dtd"><svg width="100%" height="100%" viewBox="0 0 2370 639" version="1.1" xmlns="http://www.w3.org/2000/svg" xmlns:xlink="http://www.w3.org/1999/xlink" xml:space="preserve" xmlns:serif="http://www.serif.com/" style="fill-rule:evenodd;clip-rule:evenodd;stroke-linejoin:round;stroke-miterlimit:2;"><g id="Layer-1" serif:id="Layer 1"><path d="M694.684,326.087c-0.181,23.187 16.829,67.552 50.531,131.872c35.845,68.379 64.493,108.496 85.149,119.227c13.672,7.213 26.963,7.123 40.669,-0.272c15.416,-8.315 22.973,-21.504 23.093,-40.325l0,-0.011c0.171,-23.189 -16.624,-67.163 -49.917,-130.683c-36.357,-69.379 -65.107,-109.957 -85.461,-120.597c-6.688,-3.528 -13.323,-5.291 -19.981,-5.291c-6.92,0 -13.885,1.915 -20.989,5.744c-15.427,8.315 -22.973,21.512 -23.093,40.336m314.304,108.181c0,37.032 -9.64,71.685 -28.656,102.984c-18.995,31.256 -45.245,56.216 -78.035,74.173c-32.715,17.955 -69.141,27.053 -108.248,27.053c-39.096,0 -75.464,-9.168 -108.101,-27.243c-32.691,-18.109 -58.768,-43.331 -77.499,-74.973c-18.744,-31.629 -28.248,-66.947 -28.248,-104.957c0,-37.997 9.504,-73.317 28.248,-104.957c18.731,-31.629 44.808,-56.851 77.499,-74.971c32.637,-18.075 69.005,-27.245 108.101,-27.245c53.677,0 102.115,17.795 143.981,52.891c47.099,39.875 70.971,92.779 70.957,157.245" style="fill:#336640;fill-rule:nonzero;"/><path d="M1524.689,633.725c-0.917,2.843 -3.579,4.755 -6.56,4.755l-185.165,0c-2.984,0 -5.635,-1.923 -6.56,-4.763c-0.928,-2.832 0.088,-5.947 2.496,-7.712c3.891,-2.829 7.237,-6.235 10.229,-10.387c4.856,-7.173 8.424,-15.92 10.459,-25.845c2.136,-10.432 3.216,-26.987 3.216,-49.216c0,-22.227 -1.2,-40.275 -3.387,-50.805c-2.045,-9.973 -5.603,-18.733 -10.568,-26.048c-0.163,-0.243 -0.464,-0.544 -0.728,-0.845l-1.045,-1.211c-2.813,-3.445 -5.547,-6.128 -8.365,-8.184c-2.077,-1.52 -3.133,-4.08 -2.733,-6.627c0.405,-2.552 2.189,-4.667 4.637,-5.483l3.013,-1.019c9.965,-3.376 20.536,-6.459 31.44,-9.192c0.08,-0.019 0.181,-0.035 0.28,-0.056c7.891,-2.027 17.029,-4.517 27.408,-7.501l49.467,-14.427c6.955,-2.016 14.027,-4.155 21.232,-6.408c7.163,-2.248 15.731,-5.131 25.635,-8.637c2.096,-0.757 4.453,-0.424 6.277,0.869c1.843,1.288 2.923,3.395 2.923,5.632l0,139.891c0,22.219 1.077,38.776 3.216,49.205c2.043,9.936 5.619,18.68 10.587,26.027c2.883,3.989 6.216,7.397 10.117,10.248c2.411,1.765 3.397,4.899 2.48,7.739m-206.904,-337.373c-11.547,-5.32 -24.576,-4.787 -35.739,1.451l-0.011,0l-1.331,0.768c-25.507,15.445 -46.141,43.659 -51.925,53.221c-12.765,21.112 -19.539,45.869 -19.547,71.605l0,116.947c0,22.283 1.077,38.837 3.203,49.208c2.045,9.933 5.603,18.699 10.589,26.056c2.893,3.989 6.248,7.395 10.117,10.229c2.419,1.771 3.416,4.875 2.491,7.72c-0.917,2.837 -3.565,4.755 -6.552,4.755l-185.629,0c-2.981,0 -5.632,-1.917 -6.56,-4.755c-0.925,-2.845 0.08,-5.957 2.491,-7.72c3.867,-2.824 7.213,-6.229 10.248,-10.408c4.856,-7.179 8.424,-15.944 10.459,-25.869c2.125,-10.419 3.213,-26.965 3.213,-49.205l0.021,-89.339c0,-0.341 0.021,-0.675 0.072,-0.997l-0.163,-72.067c0,-22.296 -1.088,-38.853 -3.235,-49.235c-2.056,-9.965 -5.621,-18.731 -10.581,-26.056c-0.131,-0.192 -0.443,-0.504 -0.725,-0.827l-1.016,-1.168c-2.853,-3.507 -5.603,-6.189 -8.384,-8.224c-2.099,-1.541 -3.155,-4.12 -2.731,-6.691c0.411,-2.56 2.256,-4.675 4.736,-5.461c10.227,-3.659 20.797,-6.843 31.347,-9.421l3.184,-0.787c7.901,-1.995 17.091,-4.504 27.499,-7.496c10.483,-3.043 19.568,-5.693 27.328,-7.971c7.752,-2.288 15.147,-4.445 22.171,-6.469c6.92,-2.005 14.005,-4.133 21.2,-6.4c7.195,-2.245 16.112,-5.128 26.016,-8.635c0.765,-0.272 1.512,-0.464 2.36,-0.392c3.787,0.019 6.851,3.104 6.851,6.901l0,43.083c0,0.019 0.024,0.024 0.035,0.011c57.816,-74.395 164.003,-80.464 221.792,-65.243c57.667,15.187 73.053,66.043 73.053,93.701c0,8.648 -1.341,17.232 -3.989,25.525c-10.963,34.381 -42.283,57.477 -77.923,57.477c-29.653,0 -57.083,-16.355 -71.573,-42.675c-4.203,-7.616 -7.163,-15.659 -8.787,-23.912c-2.763,-13.864 -11.749,-25.541 -24.075,-31.237" style="fill:#336640;fill-rule:nonzero;"/><path d="M1911.072,494.264l0,0.043c-0.109,20.557 -4.493,39.923 -13.037,57.547c-8.637,17.824 -20.859,33.363 -36.317,46.149c-15.373,12.699 -33.907,22.736 -55.099,29.829c-21.189,7.061 -44.384,10.648 -68.952,10.648c-7.085,0 -14.189,-0.243 -21.109,-0.723c-6.883,-0.485 -14.573,-1.461 -22.835,-2.891c-8.091,-1.435 -17.032,-3.267 -26.621,-5.464c-9.736,-2.227 -21.275,-5.429 -34.283,-9.523c-8.392,-2.488 -15.245,-4.515 -20.496,-6.035c-5.349,-1.552 -10.336,-3.093 -14.912,-4.645c-4.533,-1.544 -8.965,-3.075 -13.24,-4.608c-4.355,-1.547 -9.589,-3.613 -15.707,-6.216c-2.547,-1.08 -4.224,-3.565 -4.245,-6.331l-0.392,-49.109c-0.061,-0.344 -0.093,-0.696 -0.093,-1.061l-0.389,-58.432c-0.021,-2.355 1.179,-4.565 3.16,-5.843c1.987,-1.288 4.485,-1.464 6.632,-0.464c15.547,7.192 29.989,20.797 46.715,36.547c23.125,21.776 49.336,46.453 86.277,61.629c14.176,5.824 29.573,8.768 45.768,8.768c14.891,0 26.875,-3.325 35.608,-9.885c8.245,-6.2 12.253,-13.987 12.253,-23.811c0,-10.965 -4.736,-21.173 -12.685,-27.288c-9.512,-7.344 -28.757,-13.536 -52.923,-20.872l-2.539,-0.776c-96.16,-29.189 -172.168,-52.264 -172.541,-142.712c-0.021,-0.181 -0.032,-0.373 -0.032,-0.565l-0.059,-1.845c0,-18.893 4.445,-36.667 13.221,-52.84c8.675,-16.019 20.635,-30.077 35.56,-41.797c14.811,-11.629 32.568,-20.859 52.76,-27.437c37.413,-12.184 82.717,-11.909 127.68,-5.24c22.131,3.296 57.245,12.333 82.717,19.699c3.165,0.928 5.24,3.949 4.96,7.224l-7.811,90.933c-0.221,2.56 -1.843,4.776 -4.203,5.773c-2.357,0.997 -5.069,0.605 -7.053,-1.016c-19.024,-15.6 -33.835,-29.749 -44.648,-40.067c-6.632,-6.328 -11.872,-11.325 -16.163,-14.904c-11.459,-9.523 -23.245,-17.04 -35.037,-22.349c-11.488,-5.179 -22.613,-7.8 -33.059,-7.8c-12.355,0 -22.533,3.467 -31.136,10.592c-8.224,6.792 -12.216,14.752 -12.216,24.315c0,21.909 20.779,39.32 61.739,51.755c73.408,22.285 164.763,50.04 164.781,141.099" style="fill:#336640;fill-rule:nonzero;"/><path d="M2368.76,633.694c-0.917,2.853 -3.565,4.779 -6.56,4.779l-185.619,0c-2.987,0 -5.635,-1.917 -6.56,-4.755c-0.917,-2.845 0.08,-5.957 2.488,-7.72c3.909,-2.853 7.267,-6.259 10.248,-10.4c4.845,-7.155 8.413,-15.931 10.469,-25.885c2.136,-10.432 3.224,-26.995 3.224,-49.213l0,-162.333c0,-13.221 -0.595,-23.179 -1.771,-29.576c-1.083,-5.875 -3.288,-11.056 -6.744,-15.861c-2.971,-4.253 -6.84,-7.517 -11.869,-10.045c-12.083,-6.077 -25.149,-4.707 -39.72,2.003c-16.6,7.739 -27.349,24.771 -27.349,43.363l0,104.965c0.048,0.312 0.069,0.635 0.069,0.949l0,66.544c0,22.259 1.08,38.824 3.224,49.213c2.048,9.955 5.613,18.723 10.581,26.056c2.872,3.981 6.227,7.389 10.128,10.229c2.408,1.755 3.416,4.867 2.488,7.712c-0.928,2.837 -3.576,4.763 -6.563,4.763l-185.627,0c-2.984,0 -5.632,-1.925 -6.563,-4.763c-0.915,-2.835 0.093,-5.949 2.504,-7.712c3.899,-2.84 7.251,-6.248 10.243,-10.397c4.859,-7.165 8.419,-15.933 10.472,-25.888c2.136,-10.427 3.224,-26.995 3.224,-49.213l0.099,-303.133c-0.027,-0.251 -0.048,-0.512 -0.048,-0.765c-0.413,-31.237 -2.256,-55.109 -5.483,-70.949c-1.864,-9.109 -4.533,-17.896 -7.949,-26.139c-3.075,-7.416 -6.68,-14.24 -10.712,-20.264c-5.04,-7.045 -10.821,-13.029 -17.544,-18.117c-2.115,-1.592 -3.123,-4.261 -2.6,-6.861c0.517,-2.589 2.48,-4.667 5.051,-5.32l2.549,-0.664l1.773,3.899l0.261,-0.355l-1.149,-3.779c9.613,-2.349 19.891,-5.037 31.251,-8.141c2.659,-0.787 5.451,-1.541 8.24,-2.288l1.088,-0.291c13.696,-3.829 25.736,-7.227 36.016,-10.157l4.896,-1.381c8.915,-2.52 17.555,-4.968 25.755,-7.256c8.344,-2.336 16.877,-4.856 25.501,-7.456l7.347,-2.216c8.619,-2.68 18.541,-5.925 29.84,-9.805l2.144,-0.736c2.115,-0.776 4.485,-0.453 6.328,0.837c1.845,1.291 2.955,3.397 2.955,5.643l0,191.699c0,0.211 -0.011,0.421 -0.032,0.632l0.152,53.128c0,0.019 0.019,0.027 0.029,0.016c22.435,-22.149 71.456,-56.499 143.912,-56.499c32.437,0 54.667,18.955 67.616,34.845c7.619,9.381 13.12,20.616 16.344,33.403c3.597,14.339 5.501,32.104 5.501,51.4l0,187.083c0,22.259 1.088,38.813 3.224,49.213c2.045,9.944 5.616,18.712 10.581,26.045c2.915,4.024 6.256,7.419 10.107,10.197c2.427,1.757 3.437,4.869 2.539,7.72" style="fill:#336640;fill-rule:nonzero;"/><path d="M584.908,17.445l0,139.531c0,13.136 -2.597,25.96 -7.512,37.877c-4.957,11.917 -12.272,22.931 -21.635,32.253c-18.328,18.211 -28.355,43.107 -28.752,68.869l0,335.603c0,3.811 -3.088,6.901 -6.901,6.901l-9.261,0c-2.005,0 -3.933,-0.864 -5.232,-2.36c0,0 -357.899,-433.917 -357.899,-433.899l0,311.184c0,11.837 0.867,23.795 2.597,35.515l0,0.04c2.36,13.293 5.075,24.584 8.064,33.592c2.829,8.653 7,17.029 12.269,24.779c2.4,3.187 4.76,6.133 6.805,8.573c1.731,2.045 3.656,3.776 5.781,5.192c2.203,1.493 4.955,2.795 8.101,3.933c3.149,1.101 5.155,4.365 4.563,7.669c-0.549,3.344 -3.341,5.781 -6.723,5.781l-168.061,0c-2.795,0 -5.539,-1.477 -6.637,-4.043c-1.603,-3.749 0.203,-7.875 3.813,-9.291c3.579,-1.256 6.293,-2.595 8.453,-4.051c2.125,-1.416 4.053,-3.147 5.744,-5.152c2.085,-2.48 4.445,-5.427 7.08,-8.888l0,-0.003c5.037,-7.432 9.165,-15.811 12.075,-24.501c2.952,-9.008 5.664,-20.299 8.024,-33.592c1.771,-11.877 2.675,-23.915 2.675,-35.832l0,-358.899c0,-0.005 0,-0.008 -0.005,-0.011c-13.096,-14.829 -27.96,-28.003 -44.203,-39.211l-15.144,-10.424c-2.477,-1.691 -3.579,-4.837 -2.675,-7.707c0.904,-2.872 3.539,-4.84 6.568,-4.84l219.867,0c2.005,0 3.893,0.867 5.229,2.36l236.395,273.397c0.013,0.013 0.035,0.005 0.035,-0.013l0,-70.941c0,-13.096 -2.597,-25.957 -7.555,-37.837c-4.955,-11.955 -12.229,-22.968 -21.592,-32.291c-18.723,-18.603 -28.789,-44.171 -28.789,-70.523l0,-138.744c0,-9.635 7.811,-17.445 17.443,-17.445c9.595,0 17.443,7.851 17.443,17.445l0,112.432c0,8.616 5.936,16.483 14.435,17.883c6.035,0.995 11.509,-1.083 15.341,-4.867c3.147,-3.144 5.112,-7.472 5.112,-12.309l0,-112.547c0,-7.805 4.84,-15.096 12.328,-17.296c6.691,-1.963 13.211,0.136 17.448,4.371c3.147,3.149 5.112,7.515 5.112,12.312l0,112.453c0,8.616 5.936,16.483 14.435,17.883c6.035,0.995 11.509,-1.083 15.341,-4.867c3.147,-3.144 5.112,-7.472 5.112,-12.309l0,-113.139c0,-9.635 7.811,-17.445 17.443,-17.445l0.003,0c9.632,0 17.443,7.811 17.443,17.445" style="fill:#336640;fill-rule:nonzero;"/></g></svg>